<mxfile host="Electron" modified="2023-11-15T07:42:59.113Z" agent="Mozilla/5.0 (Macintosh; Intel Mac OS X 10_15_7) AppleWebKit/537.36 (KHTML, like Gecko) draw.io/22.0.3 Chrome/114.0.5735.289 Electron/25.8.4 Safari/537.36" etag="5dfKJKhPZkday0VFtk0s" version="22.0.3" type="device">
  <diagram name="consolidated Report" id="Ly3nHr-i9CabI-Kdx12s">
    <mxGraphModel dx="1272" dy="965" grid="1" gridSize="10" guides="1" tooltips="1" connect="1" arrows="1" fold="1" page="1" pageScale="1" pageWidth="1169" pageHeight="827" math="0" shadow="0">
      <root>
        <mxCell id="0" />
        <mxCell id="1" parent="0" />
        <mxCell id="CC48VeWLIkwTcddD6G2t-1" value="" style="sketch=0;outlineConnect=0;fontColor=#232F3E;gradientColor=none;fillColor=#232F3D;strokeColor=none;dashed=0;verticalLabelPosition=bottom;verticalAlign=top;align=center;html=1;fontSize=12;fontStyle=0;aspect=fixed;pointerEvents=1;shape=mxgraph.aws4.json_script;" parent="1" vertex="1">
          <mxGeometry x="80" y="140" width="57" height="78" as="geometry" />
        </mxCell>
        <mxCell id="CC48VeWLIkwTcddD6G2t-2" value="" style="sketch=0;outlineConnect=0;fontColor=#232F3E;gradientColor=none;fillColor=#232F3D;strokeColor=none;dashed=0;verticalLabelPosition=bottom;verticalAlign=top;align=center;html=1;fontSize=12;fontStyle=0;aspect=fixed;pointerEvents=1;shape=mxgraph.aws4.json_script;" parent="1" vertex="1">
          <mxGeometry x="80" y="272" width="57" height="78" as="geometry" />
        </mxCell>
        <mxCell id="CC48VeWLIkwTcddD6G2t-3" value="" style="sketch=0;outlineConnect=0;fontColor=#232F3E;gradientColor=none;fillColor=#232F3D;strokeColor=none;dashed=0;verticalLabelPosition=bottom;verticalAlign=top;align=center;html=1;fontSize=12;fontStyle=0;aspect=fixed;pointerEvents=1;shape=mxgraph.aws4.json_script;" parent="1" vertex="1">
          <mxGeometry x="80" y="410" width="57" height="78" as="geometry" />
        </mxCell>
        <mxCell id="CC48VeWLIkwTcddD6G2t-4" value="&lt;font size=&quot;1&quot; face=&quot;Montserrat&quot;&gt;&lt;b style=&quot;font-size: 24px;&quot;&gt;Phase 1: Consolidation of SonarQube, Code QL and Snyk Report&lt;/b&gt;&lt;/font&gt;" style="text;html=1;strokeColor=none;fillColor=none;align=center;verticalAlign=middle;whiteSpace=wrap;rounded=0;" parent="1" vertex="1">
          <mxGeometry x="300" y="70" width="710" height="70" as="geometry" />
        </mxCell>
        <mxCell id="CC48VeWLIkwTcddD6G2t-10" value="" style="sketch=0;aspect=fixed;pointerEvents=1;shadow=0;dashed=0;html=1;strokeColor=none;labelPosition=center;verticalLabelPosition=bottom;verticalAlign=top;align=center;fillColor=#000000;shape=mxgraph.azure.script_file" parent="1" vertex="1">
          <mxGeometry x="350" y="286" width="68.8" height="73.19" as="geometry" />
        </mxCell>
        <mxCell id="CC48VeWLIkwTcddD6G2t-11" value="" style="endArrow=classic;html=1;rounded=0;edgeStyle=orthogonalEdgeStyle;" parent="1" source="CC48VeWLIkwTcddD6G2t-3" edge="1">
          <mxGeometry width="50" height="50" relative="1" as="geometry">
            <mxPoint x="133" y="447" as="sourcePoint" />
            <mxPoint x="340" y="325" as="targetPoint" />
            <Array as="points">
              <mxPoint x="270" y="460" />
              <mxPoint x="270" y="325" />
            </Array>
          </mxGeometry>
        </mxCell>
        <mxCell id="CC48VeWLIkwTcddD6G2t-12" value="" style="endArrow=classic;html=1;rounded=0;edgeStyle=orthogonalEdgeStyle;" parent="1" source="CC48VeWLIkwTcddD6G2t-2" edge="1">
          <mxGeometry width="50" height="50" relative="1" as="geometry">
            <mxPoint x="147" y="300" as="sourcePoint" />
            <mxPoint x="350" y="325" as="targetPoint" />
            <Array as="points">
              <mxPoint x="190" y="325" />
              <mxPoint x="190" y="325" />
            </Array>
          </mxGeometry>
        </mxCell>
        <mxCell id="CC48VeWLIkwTcddD6G2t-13" value="" style="endArrow=classic;html=1;rounded=0;edgeStyle=orthogonalEdgeStyle;" parent="1" source="CC48VeWLIkwTcddD6G2t-1" edge="1">
          <mxGeometry width="50" height="50" relative="1" as="geometry">
            <mxPoint x="250" y="285" as="sourcePoint" />
            <mxPoint x="340" y="325" as="targetPoint" />
            <Array as="points">
              <mxPoint x="270" y="179" />
              <mxPoint x="270" y="325" />
            </Array>
          </mxGeometry>
        </mxCell>
        <mxCell id="CC48VeWLIkwTcddD6G2t-14" value="" style="sketch=0;outlineConnect=0;fontColor=#232F3E;gradientColor=none;fillColor=#232F3D;strokeColor=none;dashed=0;verticalLabelPosition=bottom;verticalAlign=top;align=center;html=1;fontSize=12;fontStyle=0;aspect=fixed;pointerEvents=1;shape=mxgraph.aws4.json_script;" parent="1" vertex="1">
          <mxGeometry x="630" y="286" width="57" height="78" as="geometry" />
        </mxCell>
        <mxCell id="CC48VeWLIkwTcddD6G2t-15" value="" style="endArrow=classic;html=1;rounded=0;" parent="1" target="CC48VeWLIkwTcddD6G2t-14" edge="1">
          <mxGeometry width="50" height="50" relative="1" as="geometry">
            <mxPoint x="430" y="325" as="sourcePoint" />
            <mxPoint x="510" y="240" as="targetPoint" />
          </mxGeometry>
        </mxCell>
        <mxCell id="CC48VeWLIkwTcddD6G2t-19" value="" style="endArrow=classic;html=1;rounded=0;" parent="1" edge="1">
          <mxGeometry width="50" height="50" relative="1" as="geometry">
            <mxPoint x="687" y="330" as="sourcePoint" />
            <mxPoint x="780" y="330" as="targetPoint" />
          </mxGeometry>
        </mxCell>
        <mxCell id="5Rm0tBr5qj9NZgo_pk4h-4" value="&lt;font style=&quot;font-size: 15px;&quot; face=&quot;Tahoma&quot;&gt;BeSecure / Mongo / Graph DB&lt;/font&gt;" style="text;html=1;strokeColor=none;fillColor=none;align=center;verticalAlign=middle;whiteSpace=wrap;rounded=0;" parent="1" vertex="1">
          <mxGeometry x="760" y="370" width="140" height="40" as="geometry" />
        </mxCell>
        <mxCell id="5Rm0tBr5qj9NZgo_pk4h-5" value="" style="endArrow=classic;html=1;rounded=0;" parent="1" edge="1">
          <mxGeometry width="50" height="50" relative="1" as="geometry">
            <mxPoint x="880" y="329.29" as="sourcePoint" />
            <mxPoint x="973" y="329.29" as="targetPoint" />
          </mxGeometry>
        </mxCell>
        <mxCell id="5Rm0tBr5qj9NZgo_pk4h-7" value="" style="shape=datastore;whiteSpace=wrap;html=1;" parent="1" vertex="1">
          <mxGeometry x="790" y="285" width="80" height="80" as="geometry" />
        </mxCell>
        <mxCell id="5Rm0tBr5qj9NZgo_pk4h-6" value="" style="image;aspect=fixed;perimeter=ellipsePerimeter;html=1;align=center;shadow=0;dashed=0;spacingTop=3;image=img/lib/active_directory/database_server.svg;" parent="1" vertex="1">
          <mxGeometry x="820" y="322.8" width="30.5" height="37.2" as="geometry" />
        </mxCell>
        <mxCell id="5Rm0tBr5qj9NZgo_pk4h-8" value="&lt;span style=&quot;color: rgb(0, 0, 0); font-family: Tahoma; font-size: 15px; font-style: normal; font-variant-ligatures: normal; font-variant-caps: normal; font-weight: 400; letter-spacing: normal; orphans: 2; text-align: center; text-indent: 0px; text-transform: none; widows: 2; word-spacing: 0px; -webkit-text-stroke-width: 0px; background-color: rgb(251, 251, 251); text-decoration-thickness: initial; text-decoration-style: initial; text-decoration-color: initial; float: none; display: inline !important;&quot;&gt;Consolidated Json Report&lt;/span&gt;" style="text;whiteSpace=wrap;html=1;" parent="1" vertex="1">
          <mxGeometry x="620" y="370" width="110" height="30" as="geometry" />
        </mxCell>
        <mxCell id="5Rm0tBr5qj9NZgo_pk4h-9" value="&lt;span style=&quot;color: rgb(0, 0, 0); font-family: Tahoma; font-size: 15px; font-style: normal; font-variant-ligatures: normal; font-variant-caps: normal; font-weight: 400; letter-spacing: normal; orphans: 2; text-indent: 0px; text-transform: none; widows: 2; word-spacing: 0px; -webkit-text-stroke-width: 0px; background-color: rgb(251, 251, 251); text-decoration-thickness: initial; text-decoration-style: initial; text-decoration-color: initial; float: none; display: inline !important;&quot;&gt;Snyk Json Report&lt;/span&gt;" style="text;whiteSpace=wrap;html=1;align=center;" parent="1" vertex="1">
          <mxGeometry x="63.5" y="210" width="90" height="30" as="geometry" />
        </mxCell>
        <mxCell id="5Rm0tBr5qj9NZgo_pk4h-11" value="&lt;span style=&quot;color: rgb(0, 0, 0); font-family: Tahoma; font-size: 15px; font-style: normal; font-variant-ligatures: normal; font-variant-caps: normal; font-weight: 400; letter-spacing: normal; orphans: 2; text-indent: 0px; text-transform: none; widows: 2; word-spacing: 0px; -webkit-text-stroke-width: 0px; background-color: rgb(251, 251, 251); text-decoration-thickness: initial; text-decoration-style: initial; text-decoration-color: initial; float: none; display: inline !important;&quot;&gt;CodeQL Json Report&lt;/span&gt;" style="text;whiteSpace=wrap;html=1;align=center;" parent="1" vertex="1">
          <mxGeometry x="63.5" y="350" width="90" height="30" as="geometry" />
        </mxCell>
        <mxCell id="5Rm0tBr5qj9NZgo_pk4h-12" value="&lt;span style=&quot;color: rgb(0, 0, 0); font-family: Tahoma; font-size: 15px; font-style: normal; font-variant-ligatures: normal; font-variant-caps: normal; font-weight: 400; letter-spacing: normal; orphans: 2; text-indent: 0px; text-transform: none; widows: 2; word-spacing: 0px; -webkit-text-stroke-width: 0px; background-color: rgb(251, 251, 251); text-decoration-thickness: initial; text-decoration-style: initial; text-decoration-color: initial; float: none; display: inline !important;&quot;&gt;Sonar Json Report&lt;/span&gt;" style="text;whiteSpace=wrap;html=1;align=center;" parent="1" vertex="1">
          <mxGeometry x="63.5" y="488" width="90" height="30" as="geometry" />
        </mxCell>
        <mxCell id="5Rm0tBr5qj9NZgo_pk4h-16" value="&lt;font style=&quot;font-size: 25px;&quot;&gt;&lt;span style=&quot;color: rgb(0, 0, 0); font-family: Tahoma; font-style: normal; font-variant-ligatures: normal; font-variant-caps: normal; letter-spacing: normal; orphans: 2; text-indent: 0px; text-transform: none; widows: 2; word-spacing: 0px; -webkit-text-stroke-width: 0px; background-color: rgb(251, 251, 251); text-decoration-thickness: initial; text-decoration-style: initial; text-decoration-color: initial; float: none; display: inline !important;&quot;&gt;&lt;b style=&quot;&quot;&gt;&lt;font style=&quot;font-size: 25px;&quot;&gt;Notes&lt;/font&gt;&lt;/b&gt;&lt;/span&gt;&lt;span style=&quot;color: rgb(0, 0, 0); font-family: Tahoma; font-style: normal; font-variant-ligatures: normal; font-variant-caps: normal; font-weight: 400; letter-spacing: normal; orphans: 2; text-indent: 0px; text-transform: none; widows: 2; word-spacing: 0px; -webkit-text-stroke-width: 0px; background-color: rgb(251, 251, 251); text-decoration-thickness: initial; text-decoration-style: initial; text-decoration-color: initial; float: none; display: inline !important;&quot;&gt;:&amp;nbsp;&lt;/span&gt;&lt;/font&gt;" style="text;whiteSpace=wrap;html=1;align=center;" parent="1" vertex="1">
          <mxGeometry x="80" y="560" width="90" height="30" as="geometry" />
        </mxCell>
        <mxCell id="5Rm0tBr5qj9NZgo_pk4h-29" value="" style="group" parent="1" vertex="1" connectable="0">
          <mxGeometry x="980" y="247" width="140" height="118" as="geometry" />
        </mxCell>
        <mxCell id="5Rm0tBr5qj9NZgo_pk4h-24" value="" style="verticalLabelPosition=bottom;verticalAlign=top;html=1;shape=mxgraph.infographic.shadedCube;isoAngle=15;fillColor=#12AAB5;strokeColor=none;shadow=0;" parent="5Rm0tBr5qj9NZgo_pk4h-29" vertex="1">
          <mxGeometry x="100" width="40" height="70" as="geometry" />
        </mxCell>
        <mxCell id="5Rm0tBr5qj9NZgo_pk4h-25" value="" style="verticalLabelPosition=bottom;verticalAlign=top;html=1;shape=mxgraph.infographic.shadedCube;isoAngle=15;fillColor=#23445D;strokeColor=none;shadow=0;" parent="5Rm0tBr5qj9NZgo_pk4h-29" vertex="1">
          <mxGeometry x="75" y="32" width="40" height="50" as="geometry" />
        </mxCell>
        <mxCell id="5Rm0tBr5qj9NZgo_pk4h-26" value="" style="verticalLabelPosition=bottom;verticalAlign=top;html=1;shape=mxgraph.infographic.shadedCube;isoAngle=15;fillColor=#AE4132;strokeColor=none;shadow=0;" parent="5Rm0tBr5qj9NZgo_pk4h-29" vertex="1">
          <mxGeometry x="50" y="4" width="40" height="90" as="geometry" />
        </mxCell>
        <mxCell id="5Rm0tBr5qj9NZgo_pk4h-27" value="" style="verticalLabelPosition=bottom;verticalAlign=top;html=1;shape=mxgraph.infographic.shadedCube;isoAngle=15;fillColor=#F2931E;strokeColor=none;shadow=0;" parent="5Rm0tBr5qj9NZgo_pk4h-29" vertex="1">
          <mxGeometry x="25" y="6" width="40" height="100" as="geometry" />
        </mxCell>
        <mxCell id="5Rm0tBr5qj9NZgo_pk4h-28" value="" style="verticalLabelPosition=bottom;verticalAlign=top;html=1;shape=mxgraph.infographic.shadedCube;isoAngle=15;fillColor=#10739E;strokeColor=none;shadow=0;" parent="5Rm0tBr5qj9NZgo_pk4h-29" vertex="1">
          <mxGeometry y="38" width="40" height="80" as="geometry" />
        </mxCell>
        <mxCell id="5Rm0tBr5qj9NZgo_pk4h-30" value="&lt;font style=&quot;font-size: 15px;&quot; face=&quot;Tahoma&quot;&gt;Visualize(BeS Light house / Grafana&lt;/font&gt;" style="text;html=1;strokeColor=none;fillColor=none;align=center;verticalAlign=middle;whiteSpace=wrap;rounded=0;" parent="1" vertex="1">
          <mxGeometry x="1010" y="365" width="140" height="40" as="geometry" />
        </mxCell>
        <mxCell id="5Rm0tBr5qj9NZgo_pk4h-31" value="&lt;span style=&quot;border-color: var(--border-color); color: rgb(0, 0, 0); font-size: 12px; font-style: normal; font-variant-ligatures: normal; font-variant-caps: normal; font-weight: 400; letter-spacing: normal; orphans: 2; text-indent: 0px; text-transform: none; widows: 2; word-spacing: 0px; -webkit-text-stroke-width: 0px; text-decoration-thickness: initial; text-decoration-style: initial; text-decoration-color: initial; font-family: Tahoma; text-align: center; background-color: rgb(251, 251, 251); float: none; display: inline !important;&quot;&gt;&lt;font style=&quot;border-color: var(--border-color); font-size: 18px;&quot;&gt;&lt;b style=&quot;border-color: var(--border-color);&quot;&gt;Consolidated Report Name:&amp;nbsp;&lt;/b&gt;&lt;/font&gt;&lt;/span&gt;&lt;font style=&quot;border-color: var(--border-color); color: rgb(0, 0, 0); font-family: Helvetica; font-style: normal; font-variant-ligatures: normal; font-variant-caps: normal; font-weight: 400; letter-spacing: normal; orphans: 2; text-align: left; text-indent: 0px; text-transform: none; widows: 2; word-spacing: 0px; -webkit-text-stroke-width: 0px; background-color: rgb(251, 251, 251); text-decoration-thickness: initial; text-decoration-style: initial; text-decoration-color: initial; font-size: 18px;&quot;&gt;BeSecure_static_code_anaqlysis_&amp;lt;project_name&amp;gt;_&amp;lt;time stamp_&amp;gt;.json&lt;/font&gt;" style="text;whiteSpace=wrap;html=1;" parent="1" vertex="1">
          <mxGeometry x="80" y="610" width="880" height="60" as="geometry" />
        </mxCell>
        <mxCell id="5Rm0tBr5qj9NZgo_pk4h-32" value="&lt;span style=&quot;color: rgb(0, 0, 0); font-family: Tahoma; font-size: 15px; font-style: normal; font-variant-ligatures: normal; font-variant-caps: normal; font-weight: 400; letter-spacing: normal; orphans: 2; text-indent: 0px; text-transform: none; widows: 2; word-spacing: 0px; -webkit-text-stroke-width: 0px; background-color: rgb(251, 251, 251); text-decoration-thickness: initial; text-decoration-style: initial; text-decoration-color: initial; float: none; display: inline !important;&quot;&gt;Transformation Script&lt;/span&gt;" style="text;whiteSpace=wrap;html=1;align=center;" parent="1" vertex="1">
          <mxGeometry x="340" y="370" width="110" height="30" as="geometry" />
        </mxCell>
      </root>
    </mxGraphModel>
  </diagram>
</mxfile>
